<svg xmlns="http://www.w3.org/2000/svg" xmlns:xlink="http://www.w3.org/1999/xlink"><symbol id="arrow"><path fill-rule="evenodd" clip-rule="evenodd" d="M7.361.238a.977.977 0 011.278 0l7.097 6.377a.755.755 0 010 1.147.977.977 0 01-1.278 0L8 1.96 1.542 7.762a.977.977 0 01-1.277 0 .755.755 0 010-1.147L7.36.238z"/><rect width="2" height="16" rx="1" transform="matrix(-1 0 0 1 9 0)"/></symbol><symbol id="icon-close" viewBox="0 0 20 20"><g fill="none"><path d="M.293 18.291a1 1 0 101.414 1.414L10 11.413l8.292 8.292a1 1 0 101.414-1.414l-8.292-8.292 8.292-8.292A1 1 0 1018.291.293L9.999 8.585 1.707.293A1 1 0 10.293 1.707L8.585 10 .293 18.291z"/></g></symbol></svg>