<svg xmlns="http://www.w3.org/2000/svg" xmlns:xlink="http://www.w3.org/1999/xlink"><symbol id="arrow"><path fill-rule="evenodd" clip-rule="evenodd" d="M7.361.238a.977.977 0 011.278 0l7.097 6.377a.755.755 0 010 1.147.977.977 0 01-1.278 0L8 1.96 1.542 7.762a.977.977 0 01-1.277 0 .755.755 0 010-1.147L7.36.238z"/><rect width="2" height="16" rx="1" transform="matrix(-1 0 0 1 9 0)"/></symbol><symbol id="github" viewBox="0 0 16 16"><g fill="#fff">
    <path d="M8 0C3.58 0 0 3.58 0 8c0 3.54 2.29 6.53 5.47 7.59.4.07.55-.17.55-.38 0-.19-.01-.82-.01-1.49-2.01.37-2.53-.49-2.69-.94-.09-.23-.48-.94-.82-1.13-.28-.15-.68-.52-.01-.53.63-.01 1.08.58 1.23.82.72 1.21 1.87.87 2.33.66.07-.52.28-.87.51-1.07-1.78-.2-3.64-.89-3.64-3.95 0-.87.31-1.59.82-2.15-.08-.2-.36-1.02.08-2.12 0 0 .67-.21 2.2.82.64-.18 1.32-.27 2-.27.68 0 1.36.09 2 .27 1.53-1.04 2.2-.82 2.2-.82.44 1.1.16 1.92.08 2.12.51.56.82 1.27.82 2.15 0 3.07-1.87 3.75-3.65 3.95.29.25.54.73.54 1.48 0 1.07-.01 1.93-.01 2.2 0 .21.15.46.55.38A8.013 8.013 0 0016 8c0-4.42-3.58-8-8-8z"/>
</g></symbol><symbol id="icon-close" viewBox="0 0 20 20"><g fill="none"><path d="M.293 18.291a1 1 0 101.414 1.414L10 11.413l8.292 8.292a1 1 0 101.414-1.414l-8.292-8.292 8.292-8.292A1 1 0 1018.291.293L9.999 8.585 1.707.293A1 1 0 10.293 1.707L8.585 10 .293 18.291z"/></g></symbol><symbol id="list" viewBox="0 0 20 20"><g fill="none">
<path d="M6 2.5C6 2.22386 6.22386 2 6.5 2H18.5C18.7761 2 19 2.22386 19 2.5V2.5C19 2.77614 18.7761 3 18.5 3H6.5C6.22386 3 6 2.77614 6 2.5V2.5Z" fill="#fff"/>
<path d="M6 4.5C6 4.22386 6.22386 4 6.5 4H18.5C18.7761 4 19 4.22386 19 4.5V4.5C19 4.77614 18.7761 5 18.5 5H6.5C6.22386 5 6 4.77614 6 4.5V4.5Z" fill="#fff"/>
<path d="M6 10.5C6 10.2239 6.22386 10 6.5 10H18.5C18.7761 10 19 10.2239 19 10.5V10.5C19 10.7761 18.7761 11 18.5 11H6.5C6.22386 11 6 10.7761 6 10.5V10.5Z" fill="#fff"/>
<path d="M6 8.5C6 8.22386 6.22386 8 6.5 8H18.5C18.7761 8 19 8.22386 19 8.5V8.5C19 8.77614 18.7761 9 18.5 9H6.5C6.22386 9 6 8.77614 6 8.5V8.5Z" fill="#fff"/>
<path d="M6 17.5C6 17.2239 6.22386 17 6.5 17H18.5C18.7761 17 19 17.2239 19 17.5V17.5C19 17.7761 18.7761 18 18.5 18H6.5C6.22386 18 6 17.7761 6 17.5V17.5Z" fill="#fff"/>
<path d="M6 15.5C6 15.2239 6.22386 15 6.5 15H18.5C18.7761 15 19 15.2239 19 15.5V15.5C19 15.7761 18.7761 16 18.5 16H6.5C6.22386 16 6 15.7761 6 15.5V15.5Z" fill="#fff"/>
<path d="M6 12.5C6 12.2239 6.22386 12 6.5 12H18.5C18.7761 12 19 12.2239 19 12.5V12.5C19 12.7761 18.7761 13 18.5 13H6.5C6.22386 13 6 12.7761 6 12.5V12.5Z" fill="#fff"/>
<path d="M1 3.5C1 2.67157 1.67157 2 2.5 2V2C3.32843 2 4 2.67157 4 3.5V3.5C4 4.32843 3.32843 5 2.5 5V5C1.67157 5 1 4.32843 1 3.5V3.5Z" fill="#fff"/>
<path d="M1 16C1 15.1716 1.67157 14.5 2.5 14.5V14.5C3.32843 14.5 4 15.1716 4 16V16C4 16.8284 3.32843 17.5 2.5 17.5V17.5C1.67157 17.5 1 16.8284 1 16V16Z" fill="#fff"/>
<path d="M1 9.5C1 8.67157 1.67157 8 2.5 8V8C3.32843 8 4 8.67157 4 9.5V9.5C4 10.3284 3.32843 11 2.5 11V11C1.67157 11 1 10.3284 1 9.5V9.5Z" fill="#fff"/>
</g></symbol><symbol id="mail" viewBox="0 0 20 20"><g fill="none">
<path d="M17.5584 0H2.44568C1.09663 0 0 1.441 0 3.2137V16.7863C0 18.559 1.09663 20 2.44568 20H17.5543C18.9034 20 20 18.559 20 16.7863V3.21914C20.0041 1.44644 18.9075 0 17.5584 0ZM18.8868 16.7863C18.8868 17.7488 18.2909 18.5318 17.5584 18.5318H2.44568C1.71322 18.5318 1.11732 17.7488 1.11732 16.7863V3.21914C1.11732 2.25666 1.71322 1.47363 2.44568 1.47363H17.5543C18.2868 1.47363 18.8827 2.25666 18.8827 3.21914V16.7863H18.8868Z" fill="#fff"/>
<path d="M12.6133 9.83144L17.5046 4.06744C17.7322 3.79555 17.7529 3.33334 17.546 3.02883C17.3391 2.72975 16.9873 2.70256 16.7556 2.97445L10.0103 10.9299L8.69436 9.38554C8.69023 9.38011 8.68609 9.37467 8.68609 9.36923C8.65712 9.33117 8.62815 9.29854 8.59505 9.26591L3.2402 2.96901C3.00846 2.69713 2.65671 2.72431 2.4498 3.02883C2.24289 3.33334 2.26358 3.79555 2.49532 4.06744L7.44462 9.88038L2.51601 15.9435C2.29255 16.2208 2.28013 16.683 2.49118 16.9821C2.60291 17.1343 2.75189 17.2159 2.90086 17.2159C3.03743 17.2159 3.17399 17.1506 3.28158 17.0201L8.28468 10.87L9.64201 12.4633C9.74961 12.5884 9.88203 12.6482 10.0145 12.6482C10.1469 12.6482 10.2834 12.5829 10.3869 12.4579L11.7815 10.8157L16.7556 17.0256C16.8632 17.1615 17.0039 17.2268 17.1405 17.2268C17.2894 17.2268 17.4343 17.1506 17.546 16.9984C17.7571 16.7047 17.7488 16.2371 17.5253 15.9598L12.6133 9.83144Z" fill="#fff"/>
</g></symbol><symbol id="phone" viewBox="0 0 20 20"><g fill="none">
<path d="M15.8147 12.3893C15.4047 11.9629 14.9101 11.735 14.3859 11.735C13.866 11.735 13.3672 11.9587 12.9402 12.3851L11.6044 13.7147C11.4945 13.6556 11.3846 13.6007 11.2789 13.5459C11.1267 13.4699 10.983 13.3981 10.8604 13.3222C9.6091 12.5286 8.47196 11.4944 7.38132 10.1563C6.85291 9.48936 6.49782 8.92795 6.23995 8.35809C6.58659 8.04151 6.90786 7.71226 7.22068 7.39567C7.33905 7.27748 7.45741 7.15507 7.57578 7.03688C8.4635 6.15044 8.4635 5.00229 7.57578 4.11585L6.42173 2.96348C6.29068 2.83262 6.15541 2.69755 6.02859 2.56247C5.77495 2.30076 5.50863 2.03061 5.23386 1.77734C4.82381 1.37211 4.33345 1.15683 3.81772 1.15683C3.30199 1.15683 2.80317 1.37211 2.38045 1.77734C2.37622 1.78156 2.37622 1.78156 2.37199 1.78578L0.934715 3.23363C0.393623 3.77394 0.0850312 4.43243 0.0173946 5.19646C-0.0840601 6.42903 0.279486 7.57718 0.558487 8.32854C1.24331 10.1732 2.26631 11.8827 3.79236 13.7147C5.64391 15.9224 7.87168 17.6657 10.4165 18.8941C11.3888 19.3542 12.6866 19.8987 14.1365 19.9916C14.2253 19.9958 14.3183 20 14.4028 20C15.3793 20 16.1994 19.6496 16.842 18.9532C16.8462 18.9447 16.8547 18.9405 16.8589 18.932C17.0787 18.6661 17.3323 18.4255 17.5987 18.168C17.7804 17.995 17.9664 17.8134 18.1482 17.6235C18.5667 17.1887 18.7865 16.6822 18.7865 16.163C18.7865 15.6396 18.5625 15.1372 18.1355 14.7151L15.8147 12.3893ZM17.3281 16.8341C17.3239 16.8341 17.3239 16.8384 17.3281 16.8341C17.1633 17.0114 16.9942 17.1718 16.8124 17.3491C16.5376 17.6108 16.2586 17.8852 15.9965 18.1933C15.5696 18.6492 15.0665 18.8645 14.4071 18.8645C14.3437 18.8645 14.276 18.8645 14.2126 18.8603C12.9571 18.7801 11.7904 18.2904 10.9153 17.8725C8.52269 16.7159 6.42173 15.0739 4.67586 12.9929C3.23436 11.258 2.27054 9.65398 1.63222 7.93176C1.23908 6.88069 1.09535 6.06179 1.15876 5.28932C1.20103 4.79545 1.39126 4.386 1.74213 4.03565L3.18363 2.59624C3.39077 2.40207 3.61058 2.29654 3.82618 2.29654C4.09249 2.29654 4.30809 2.45694 4.44336 2.59202C4.44759 2.59624 4.45181 2.60046 4.45604 2.60468C4.7139 2.84529 4.95909 3.09433 5.21695 3.36026C5.348 3.49534 5.48327 3.63042 5.61854 3.76971L6.77259 4.92209C7.22068 5.36953 7.22068 5.7832 6.77259 6.23064C6.65 6.35305 6.53164 6.47546 6.40905 6.59366C6.05395 6.95667 5.71577 7.29437 5.348 7.62361C5.33954 7.63206 5.33109 7.63628 5.32686 7.64472C4.96332 8.00774 5.03095 8.36231 5.10704 8.60292C5.11127 8.61558 5.1155 8.62824 5.11972 8.64091C5.41986 9.36694 5.84259 10.0508 6.48514 10.8654L6.48936 10.8697C7.65609 12.3049 8.88623 13.4235 10.2432 14.2803C10.4165 14.3901 10.5941 14.4787 10.7631 14.5632C10.9153 14.6391 11.0591 14.7109 11.1816 14.7869C11.1986 14.7953 11.2155 14.808 11.2324 14.8164C11.3761 14.8882 11.5114 14.922 11.6509 14.922C12.0017 14.922 12.2216 14.7025 12.2934 14.6307L13.7392 13.1871C13.8829 13.0436 14.1112 12.8705 14.3775 12.8705C14.6396 12.8705 14.8552 13.0351 14.9862 13.1786C14.9904 13.1829 14.9904 13.1829 14.9947 13.1871L17.3239 15.5129C17.7593 15.9435 17.7593 16.3867 17.3281 16.8341Z" fill="#fff"/>
<path d="M10.8096 4.75747C11.9171 4.9432 12.9232 5.46662 13.7264 6.26863C14.5296 7.07065 15.0496 8.07528 15.2398 9.18122C15.2863 9.45981 15.5272 9.65399 15.802 9.65399C15.8358 9.65399 15.8654 9.64977 15.8992 9.64554C16.2121 9.59489 16.4192 9.29941 16.3685 8.98705C16.1402 7.64895 15.5061 6.42904 14.5381 5.4624C13.57 4.49576 12.3483 3.86258 11.0083 3.63464C10.6955 3.58399 10.4038 3.79083 10.3488 4.09897C10.2939 4.40711 10.4968 4.70681 10.8096 4.75747Z" fill="#fff"/>
<path d="M19.9914 8.82242C19.6152 6.61899 18.5752 4.61395 16.9773 3.01836C15.3794 1.42277 13.3715 0.384369 11.1648 0.00868773C10.8562 -0.0461871 10.5645 0.16487 10.5096 0.473013C10.4589 0.785377 10.666 1.07664 10.9788 1.13151C12.9487 1.46498 14.7453 2.39785 16.1741 3.82038C17.603 5.24712 18.533 7.0411 18.8669 9.00815C18.9134 9.28675 19.1544 9.48092 19.4292 9.48092C19.463 9.48092 19.4926 9.4767 19.5264 9.47248C19.835 9.42605 20.0463 9.13057 19.9914 8.82242Z" fill="#fff"/>
</g></symbol><symbol id="sort-list" viewBox="0 0 21 13">
<path d="M7 0H21V5H7V0Z" fill="#AD6DCB"/>
<path d="M7 8H21V13H7V8Z" fill="#AD6DCB"/>
<path d="M0 8H5V13H0V8Z" fill="#AD6DCB"/>
<path d="M0 0H5V5H0V0Z" fill="#AD6DCB"/>
</symbol><symbol id="tile" viewBox="0 0 21 13">
<path d="M2 1.5H5.5H9V11.5H5.5H2V1.5Z" fill="#AD6DCB"/>
<path d="M12 1.5H15.5H19V11.5H15.5H12V1.5Z" fill="#AD6DCB"/>
</symbol></svg>