<svg width="20" height="20" viewBox="0 0 20 20" fill="none" xmlns="http://www.w3.org/2000/svg">
<path d="M6 2.5C6 2.22386 6.22386 2 6.5 2H18.5C18.7761 2 19 2.22386 19 2.5V2.5C19 2.77614 18.7761 3 18.5 3H6.5C6.22386 3 6 2.77614 6 2.5V2.5Z" fill="#fff"/>
<path d="M6 4.5C6 4.22386 6.22386 4 6.5 4H18.5C18.7761 4 19 4.22386 19 4.5V4.5C19 4.77614 18.7761 5 18.5 5H6.5C6.22386 5 6 4.77614 6 4.5V4.5Z" fill="#fff"/>
<path d="M6 10.5C6 10.2239 6.22386 10 6.5 10H18.5C18.7761 10 19 10.2239 19 10.5V10.5C19 10.7761 18.7761 11 18.5 11H6.5C6.22386 11 6 10.7761 6 10.5V10.5Z" fill="#fff"/>
<path d="M6 8.5C6 8.22386 6.22386 8 6.5 8H18.5C18.7761 8 19 8.22386 19 8.5V8.5C19 8.77614 18.7761 9 18.5 9H6.5C6.22386 9 6 8.77614 6 8.5V8.5Z" fill="#fff"/>
<path d="M6 17.5C6 17.2239 6.22386 17 6.5 17H18.5C18.7761 17 19 17.2239 19 17.5V17.5C19 17.7761 18.7761 18 18.5 18H6.5C6.22386 18 6 17.7761 6 17.5V17.5Z" fill="#fff"/>
<path d="M6 15.5C6 15.2239 6.22386 15 6.5 15H18.5C18.7761 15 19 15.2239 19 15.5V15.5C19 15.7761 18.7761 16 18.5 16H6.5C6.22386 16 6 15.7761 6 15.5V15.5Z" fill="#fff"/>
<path d="M6 12.5C6 12.2239 6.22386 12 6.5 12H18.5C18.7761 12 19 12.2239 19 12.5V12.5C19 12.7761 18.7761 13 18.5 13H6.5C6.22386 13 6 12.7761 6 12.5V12.5Z" fill="#fff"/>
<path d="M1 3.5C1 2.67157 1.67157 2 2.5 2V2C3.32843 2 4 2.67157 4 3.5V3.5C4 4.32843 3.32843 5 2.5 5V5C1.67157 5 1 4.32843 1 3.5V3.5Z" fill="#fff"/>
<path d="M1 16C1 15.1716 1.67157 14.5 2.5 14.5V14.5C3.32843 14.5 4 15.1716 4 16V16C4 16.8284 3.32843 17.5 2.5 17.5V17.5C1.67157 17.5 1 16.8284 1 16V16Z" fill="#fff"/>
<path d="M1 9.5C1 8.67157 1.67157 8 2.5 8V8C3.32843 8 4 8.67157 4 9.5V9.5C4 10.3284 3.32843 11 2.5 11V11C1.67157 11 1 10.3284 1 9.5V9.5Z" fill="#fff"/>
</svg>
